<?xml version="1.0" encoding="UTF-8"?>
<svg width="900px" height="900px" viewBox="0 0 900 900" version="1.1" xmlns="http://www.w3.org/2000/svg" xmlns:xlink="http://www.w3.org/1999/xlink">
    <!-- Generator: Sketch 60.1 (88133) - https://sketch.com -->
    <title>Artboard</title>
    <desc>Created with Sketch.</desc>
    <g id="Artboard" stroke="none" stroke-width="1" fill="none" fill-rule="evenodd">
        <g id="Group">
            <path d="M78.2608696,56.2535509 C78.2608696,56.2535509 117.449129,109.236666 137.347894,145.866319 C157.246658,182.497253 248.064474,247.908538 290.347826,238.095948 C290.347826,238.095948 225.046246,189.6917 221.317512,136.05501 C217.576593,82.4170394 180.264886,0 180.264886,0 C180.264886,0 157.246658,21.5859033 137.347894,21.5859033 C117.449129,21.5859033 78.2608696,56.2535509 78.2608696,56.2535509" id="Fill-130" fill="#0B3F59"></path>
            <path d="M626.243979,830.59024 C686.507078,816.538206 782.38019,776.765252 827.839264,728.514294 C915.01988,635.959302 923.52976,495.656087 851.603621,393.848957 C802.893993,324.921232 1.56521739,508.849981 1.56521739,508.849981 C1.56521739,508.849981 4.84012115,563.969932 5.40014187,567.339163 C13.0456421,613.165619 30.5888998,657.072893 57.1655352,694.155114 C136.128456,804.29421 331.648733,899.277582 626.243979,830.59024" id="Fill-131" fill="#E23C0A"></path>
            <path d="M5.86956522,566.608696 C14.2100968,608.426728 30.0765598,648.549834 53.8458589,682.672442 C71.2564146,708.892267 93.8098927,729.807078 117.323869,749.52926 C200.486021,808.932786 238.674956,812.868722 251.34381,818.638681 C463.978732,884.95843 728.662947,821.37426 827.217391,727.229916 C748.371404,814.07552 561.110665,862.710603 413.582954,857.336041 C290.310871,852.363316 200.279331,819.140976 137.506497,774.951852 C129.0687,768.876652 120.898383,762.363554 112.606484,756.095164 C71.4995788,719.84746 42.3685094,686.505343 21.3348074,628.706586 C13.9790908,608.659844 8.82401007,587.775943 5.86956522,566.608696" id="Fill-132" fill="#662D91"></path>
            <path d="M405.134854,286.131056 C405.134854,286.131056 134.780594,203.202739 26.6413261,404.599158 C-81.5101188,605.996867 164.612957,732.362843 317.500768,758.030609 C470.400756,783.699665 767.786788,705.707359 830.252101,639.562507 C892.717415,573.417655 908.559008,394.727139 783.640558,329.568715 C658.709931,264.410292 405.134854,286.131056 405.134854,286.131056" id="Fill-133" fill="#F9B406"></path>
            <path d="M635.086957,483.848471 C635.086957,529.123602 539.86852,565.826087 422.419108,565.826087 C304.957567,565.826087 209.73913,529.123602 209.73913,483.848471 C209.73913,438.573341 304.957567,401.869565 422.419108,401.869565 C539.86852,401.869565 635.086957,438.573341 635.086957,483.848471" id="Fill-134" fill="#E29C00"></path>
            <polyline id="Fill-135" fill="#1B1464" points="96.0731319 533.73913 46.173913 567.839723 195.883791 675.391304 258.26087 632.109338 96.0731319 533.73913"></polyline>
            <path d="M47.4804035,566.272476 L195.121673,673.54928 L256.083385,630.757125 L96.1528167,532.634419 L47.4804035,566.272476 Z M195.505144,675.391304 L195.250581,675.204488 L46.173913,566.937242 L96.4924405,532.173913 L258.26087,631.367031 L195.505144,675.391304 L195.505144,675.391304 Z" id="Fill-136" fill="#000000"></path>
            <polyline id="Fill-137" fill="#1B1464" points="604.414292 320.478261 567.391304 367.669373 704.363064 425.347826 768.521739 393.887085 604.414292 320.478261"></polyline>
            <path d="M568.698445,366.712789 L705.114347,424.496064 L768.255283,393.357709 L605.154315,319.972264 L568.698445,366.712789 Z M705.433825,424.956522 L705.240013,424.878873 L567.391304,366.497626 L605.111944,318.130435 L770.869565,392.691021 L705.433825,424.956522 L705.433825,424.956522 Z" id="Fill-138" fill="#000000"></path>
            <path d="M210.486351,656.217391 C206.883048,656.217391 203.717984,653.446961 203.133665,649.562434 L199.591228,625.93199 C198.300856,617.330905 193.115021,609.937939 185.713641,606.129402 L80.8039552,552.169766 L85.3324309,573.219111 C86.1602167,577.048256 84.4437784,581.186513 80.9987284,582.650939 C76.6041592,584.519788 71.8809104,581.775117 70.882698,577.10879 L66.1229293,555.000731 C63.3961052,542.360562 75.7155067,532.009121 86.7323629,537.677491 L197.631323,594.712808 C206.030915,599.036534 211.91063,607.431543 213.383602,617.199532 L217.863384,647.089525 C218.50857,651.392644 215.733053,655.434304 211.667163,656.116929 C211.277617,656.183904 210.875897,656.217391 210.486351,656.217391" id="Fill-139" fill="#000000"></path>
            <path d="M616.083858,298.956522 C616.083858,298.956522 666.135042,324.090502 656.048635,342.789528 C645.974513,361.485991 613.356474,353.640829 607.717423,347.756636 C602.078372,341.873725 595.173913,315.722755 595.173913,315.722755 L616.083858,298.956522" id="Fill-140" fill="#F15A24"></path>
            <path d="M706.611583,357.032673 L597.521739,318.130435 L597.521739,361.899311 C597.521739,366.683638 601.531241,370.472516 606.168737,369.668698 C609.803857,369.03979 612.315834,365.401387 612.315834,361.477467 L612.315834,340.021303 L692.976863,368.785141 C699.353419,371.05641 703.640688,377.408505 703.640688,384.560559 L703.640688,402.178972 C703.640688,406.101606 706.164741,409.74001 709.799862,410.370203 C714.425281,411.174022 718.434783,407.385143 718.434783,402.600816 L718.434783,374.525047 C718.434783,366.59361 713.676519,359.550875 706.611583,357.032673" id="Fill-141" fill="#000000"></path>
            <polyline id="Fill-142" fill="#538E80" points="412.464974 797.086957 385.043478 885.48702 486 900 464.805113 805.003245 412.464974 797.086957"></polyline>
            <path d="M385.043478,885.945863 C385.043478,885.945863 441.131791,804.174289 486,900 L385.043478,885.945863" id="Fill-143" fill="#95DBCA"></path>
            <polyline id="Fill-144" fill="#538E80" points="752.869565 620.500156 830.955504 662.869565 860.086957 559.565217 768.342984 566.995047 752.869565 620.500156"></polyline>
            <path d="M831.324196,662.869565 C831.324196,662.869565 762.250265,591.141346 860.086957,559.565217 L831.324196,662.869565" id="Fill-145" fill="#95DBCA"></path>
            <path d="M231.463037,237.130435 C231.463037,237.130435 144.133058,278.087299 110.742184,313.306357 C77.3513104,348.526705 85.3871361,385.721158 85.3871361,385.721158 C85.3871361,385.721158 57.9894959,413.962466 56.6685382,428.910179 C53.9165431,459.962974 69.780266,475.535175 69.780266,475.535175 C69.780266,475.535175 61.8789823,480.251092 61.8789823,498.309633 C61.8789823,532.173913 107.855647,532.173913 131.583961,532.173913 C155.300043,532.173913 152.804901,493.975634 152.804901,493.975634 C152.804901,493.975634 174.038072,478.169895 165.292843,445.241056 C165.292843,445.241056 210.242096,393.871758 225.225181,341.186391 C240.208265,288.499733 231.463037,237.130435 231.463037,237.130435" id="Fill-146" fill="#538E80"></path>
            <path d="M336.521739,228.134086 C336.521739,228.134086 405.923791,198.219253 443.987697,205.919026 C482.039419,213.617506 490.751229,237.372263 490.751229,237.372263 C490.751229,237.372263 510.648271,229.454011 538.014319,237.372263 C565.380366,245.290515 566.62317,269.245652 566.62317,269.245652 C566.62317,269.245652 587.616803,261.222685 611.400653,275.644892 C635.184502,290.065807 636.183619,295.93501 614.25179,319.195926 C592.332146,342.455549 567.244572,364.724907 552.940146,349.549011 C538.63572,334.371822 541.023853,319.195926 541.023853,319.195926 C541.023853,319.195926 517.495875,337.01167 500.705842,319.195926 C500.705842,319.195926 431.047919,358.787187 399.95346,312.596305 C368.859001,266.406716 336.521739,228.134086 336.521739,228.134086" id="Fill-147" fill="#538E80"></path>
            <path d="M472.122844,331.555922 C476.402674,323.358218 473.098304,316.629107 472.122844,315.587882 C465.148307,308.181457 436.396629,296.828996 436.396629,296.828996 C436.396629,296.828996 442.261581,211.983403 364.456469,218.291621 C348.129711,223.688119 336.521739,228.697396 336.521739,228.697396 C336.521739,228.697396 368.882618,267.037528 399.999785,313.308583 C418.094565,340.210781 449.223925,338.064873 472.122844,331.555922" id="Fill-148" fill="#437568"></path>
            <path d="M102.267626,508.117202 C93.8884148,509.059327 87.4344846,516.439088 86.9259198,525.471791 C86.1388551,539.537389 85.8240292,561.246544 90.9581126,566.748553 C98.7076723,575.06784 115.369226,571.780149 121.241939,578.081339 C127.114652,584.38253 131.134736,594 139.780339,594 C148.43805,594 156.46611,552.876577 134.839995,524.355535 C123.639459,509.58042 111.433902,507.086713 102.267626,508.117202" id="Fill-149" fill="#F15A24"></path>
            <path d="M631.306224,332.37906 C631.306224,332.37906 604.956522,326.456111 604.956522,344.278135 C604.956522,362.100159 647.768655,362.731957 655.680926,354.569227 C663.593197,346.406497 642.088994,332.37906 631.306224,332.37906" id="Fill-150" fill="#F7931E"></path>
            <path d="M117.81851,62.2173913 C117.81851,62.2173913 120.259848,115.865096 76.6453546,121.16317 C33.0308615,126.462542 51.7192995,156.265669 51.7192995,156.265669 C51.7192995,156.265669 87.240759,176.798788 105.306656,201.965614 C123.372553,227.133737 217.095497,256.938161 240.324822,252.30186 C263.566355,247.665558 290.347826,239.717798 290.347826,239.717798 C290.347826,239.717798 232.402682,234.419724 214.336785,195.342696 C196.270888,156.265669 153.388797,62.2173913 117.81851,62.2173913" id="Fill-151" fill="#195F82"></path>
            <path d="M248.034538,145.9649 C248.034538,145.9649 239.348132,131.636416 248.034538,111.22226 C248.034538,111.22226 242.446081,88.1736032 277.179557,74.3444093 C311.900884,60.5165055 307.393672,50.6377726 294.746751,44.712081 C282.099829,38.7850993 260.426334,41.41831 260.426334,41.41831 C260.426334,41.41831 295.98593,3.22449924 326.370129,26.9311359 C342.528059,39.5346806 346.792295,48.5077232 345.61386,55.880971 C343.524263,68.9038168 348.468832,81.8750563 357.24028,91.2390165 C360.265336,94.4644092 362.743696,97.8188177 363.982875,101.026148 C368.951743,113.856761 366.376193,155.73913 366.376193,155.73913 L248.034538,145.9649" id="Fill-152" fill="#124A6B"></path>
            <path d="M230.198951,238.329108 C230.198951,238.329108 180.433674,326.400926 194.121258,382.923881 C207.808842,439.446836 230.198951,424.987745 230.198951,424.987745 C230.198951,424.987745 216.511366,447.33373 230.198951,485.453503 C243.886535,523.574564 308.521671,555.302411 332.228128,565.638427 C350.486366,573.593567 440.107742,575.352506 498.855877,550.590878 C545.12308,531.090613 559.212881,479.78009 567.391304,464.422215 C567.391304,464.422215 548.730849,396.068275 516.38281,382.923881 C484.059147,369.789788 478.891262,372.40373 478.891262,372.406306 C489.714569,366.928616 474.759391,331.865739 469.152722,325.941233 C449.346557,305.012957 426.895506,312.745333 426.797999,310.627138 C426.797999,310.624563 423.056157,227.814108 372.047662,219.927214 C321.039168,212.04032 253.320364,187.370115 230.198951,238.329108" id="Fill-153" fill="#95DBCA"></path>
            <path d="M433.522373,507.352295 C372.516336,552.443941 342.782609,568.047122 342.782609,568.047122 L342.79482,568.060039 C373.651956,573.204697 447.784793,571.639213 498.728985,550.137046 C545.081851,530.576236 559.197739,479.106403 567.391304,463.700844 C567.391304,463.700844 494.52841,462.26065 433.522373,507.352295" id="Fill-154" fill="#345149"></path>
            <path d="M401.985348,456.162254 C381.724544,466.454424 336.521739,498.155233 336.521739,554.691971 C336.521739,611.228709 396.255758,654.617847 396.255758,659.87663 C396.255758,665.135412 385.8084,738.764801 369.253543,780.838922 C352.698687,822.913043 478.225461,822.913043 478.225461,822.913043 C478.225461,822.913043 521.941011,678.364153 521.941011,639.537005 C521.941011,600.709857 469.423836,532.428119 478.225461,523.136702 C487.014895,513.845286 585.405358,603.339892 619.014887,603.339892 C652.612225,603.339892 728.523192,658.561612 754.659873,648.04276 C780.796554,637.525196 768.349935,600.709857 791.987539,575.728388 C815.637335,550.746918 834.301168,544.775889 758.390201,516.206135 C682.479235,487.636381 668.167451,468.101738 626.475544,456.162254 C584.4423,444.122309 508.250949,402.173121 401.985348,456.162254" id="Fill-155" fill="#124A6B"></path>
            <path d="M261.178838,145.902543 C261.178838,145.902543 235.020233,173.827469 240.668252,195.884721 C246.328443,217.940683 326.411023,237.153001 346.909437,231.973368 C367.420023,226.795022 374.869565,205.362677 374.869565,205.362677 C374.869565,205.362677 372.386384,186.020224 369.282408,166.289943 C366.178433,146.559661 349.392617,120.254337 318.949308,123.541214 C288.505999,126.830668 261.178838,145.902543 261.178838,145.902543" id="Fill-156" fill="#FC7575"></path>
            <path d="M238.784018,191.089875 C238.784018,191.089875 258.416928,148.465328 306.263777,148.42484 C370.006832,148.371292 372.441167,196.826087 372.441167,196.826087 C372.441167,196.826087 378.782609,159.091425 378.782609,148.423534 C378.782609,140.625055 377.090746,131.759525 372.562883,125.473462 C367.462952,118.390703 357.421321,114.215232 350.045287,110.573939 C332.457219,101.895176 312.10618,96.9817812 292.996653,102.515554 C253.85255,113.848229 240.841031,135.997687 238.759675,143.0922 C235.96019,152.674757 238.784018,191.089875 238.784018,191.089875" id="Fill-157" fill="#F15A24"></path>
            <path d="M260.085187,160.043478 C258.995818,160.043478 258.083472,159.242161 258.001769,158.192787 L255.918351,129.689542 C255.836648,128.593413 256.708143,127.644041 257.851981,127.566117 C258.968584,127.534948 260.003485,128.316784 260.085187,129.412912 L262.168606,157.917456 C262.250309,159.012286 261.378813,159.961658 260.234976,160.039582 L260.085187,160.043478" id="Fill-158" fill="#C1272D"></path>
            <path d="M271.872579,153.782609 C270.846272,153.782609 269.96658,153.02704 269.846622,152.002562 L266.101268,120.020754 C265.967981,118.917571 266.78103,117.92064 267.900638,117.796024 C269.046903,117.668784 270.033224,118.461082 270.153182,119.560329 L273.898536,151.544761 C274.031823,152.646632 273.232103,153.643563 272.099167,153.769491 L271.872579,153.782609" id="Fill-159" fill="#C1272D"></path>
            <path d="M293.169877,145.956522 C292.200467,145.956522 291.37831,145.157562 291.292413,144.098015 L288.789128,111.761321 C288.703231,110.64754 289.476304,109.668682 290.507069,109.576087 C291.550104,109.45836 292.458158,110.311553 292.531784,111.425335 L295.035069,143.763352 C295.133237,144.87581 294.360164,145.85599 293.3294,145.948585 L293.169877,145.956522" id="Fill-160" fill="#C1272D"></path>
            <path d="M280.185291,147.521739 C278.942451,147.521739 277.914423,146.70768 277.837705,145.65381 L275.873711,117.535057 C275.796993,116.442299 276.794333,115.501205 278.083204,115.437688 C279.356731,115.379355 280.492165,116.206377 280.568883,117.301728 L282.517533,145.420481 C282.594252,146.514535 281.612255,147.454333 280.323384,147.51785 L280.185291,147.521739" id="Fill-161" fill="#C1272D"></path>
            <path d="M306.792893,145.173913 C305.949611,145.173913 305.258729,144.322662 305.238409,143.244324 L304.435768,108.871166 C304.405288,107.774661 305.086009,106.859826 305.939451,106.826087 C306.742093,106.890969 307.514254,107.656576 307.544734,108.755676 L308.347376,143.128834 C308.367696,144.224041 307.697135,145.140174 306.833533,145.173913 L306.792893,145.173913" id="Fill-162" fill="#C1272D"></path>
            <path d="M322.276794,145.956522 L322.230836,145.956522 C321.458729,145.920806 320.842881,144.984256 320.870456,143.867805 L321.578221,111.529067 C321.596605,110.411293 322.240027,109.51575 323.021326,109.56734 C323.802625,109.603056 324.409281,110.538282 324.390897,111.656057 L323.683132,143.993472 C323.655557,145.090081 323.030518,145.956522 322.276794,145.956522" id="Fill-163" fill="#C1272D"></path>
            <path d="M336.688562,147.521739 L336.393193,147.490632 C335.438924,147.301397 334.814105,146.270976 334.98451,145.192598 L339.324163,117.077005 C339.494568,115.994738 340.392035,115.266315 341.346305,115.46851 C342.289213,115.657745 342.925393,116.68687 342.754988,117.766544 L338.403975,145.882138 C338.25629,146.845161 337.517867,147.521739 336.688562,147.521739" id="Fill-164" fill="#C1272D"></path>
            <path d="M349.18743,153.391304 C349.053628,153.391304 348.930977,153.373205 348.797175,153.338299 C347.882862,153.091374 347.303055,152.026104 347.526058,150.960835 L353.502539,121.266442 C353.714392,120.203758 354.617554,119.545721 355.554167,119.790061 C356.468479,120.036986 357.037137,121.102256 356.825284,122.167526 L350.848803,151.861918 C350.65925,152.774637 349.956791,153.391304 349.18743,153.391304" id="Fill-165" fill="#C1272D"></path>
            <path d="M359.215004,162.391304 C359.036006,162.391304 358.857007,162.365469 358.678008,162.311215 C357.642374,162.00636 357.04145,160.908363 357.335519,159.859454 L365.556669,131.342547 C365.850738,130.292346 366.937515,129.680051 367.985935,129.996533 C369.02157,130.301388 369.609708,131.398093 369.315639,132.447002 L361.107275,160.965201 C360.851563,161.829388 360.07164,162.391304 359.215004,162.391304" id="Fill-166" fill="#C1272D"></path>
            <path d="M367.426306,169.043478 C367.15893,169.043478 366.891554,168.9906 366.636909,168.881066 C365.656529,168.451743 365.210902,167.314856 365.643797,166.340382 L373.486837,148.672684 C373.919732,147.699469 375.065631,147.260074 376.058743,147.681843 C377.039123,148.112425 377.48475,149.249311 377.051855,150.223786 L369.208815,167.891483 C368.89051,168.614156 368.177506,169.043478 367.426306,169.043478" id="Fill-167" fill="#C1272D"></path>
            <path d="M246.100985,173.347826 C245.45646,173.347826 244.921976,172.521581 244.898396,171.4693 L244.17527,141.338812 C244.14383,140.259713 244.662594,139.35046 245.330699,139.308318 C246.006664,139.238081 246.549009,140.109022 246.580449,141.185567 L247.303575,171.316055 C247.327155,172.395154 246.808391,173.304407 246.148146,173.346549 L246.100985,173.347826" id="Fill-168" fill="#C1272D"></path>
            <path d="M268.434783,41.2832548 C268.434783,47.6581754 263.35177,52.826087 257.086957,52.826087 C250.822143,52.826087 245.73913,47.6581754 245.73913,41.2832548 C245.73913,34.9070419 250.822143,29.7391304 257.086957,29.7391304 C263.35177,29.7391304 268.434783,34.9070419 268.434783,41.2832548" id="Fill-169" fill="#F15A24"></path>
            <path d="M199.565217,43.5727276 C199.565217,43.5727276 238.858666,32.6867682 250.919877,42.3409869 L253.956522,48.5048441 C253.956522,48.5048441 244.846588,65.52245 235.980562,74.8932137 C227.114535,84.2652659 220.809534,87.2608696 220.809534,87.2608696 L215.906999,76.3736217 C215.906999,76.3736217 236.212273,68.5090347 236.212273,62.3297162 L210.541041,73.4140941 L207.272685,61.0825144 L224.07789,56.3977767 L205.406795,57.383427 L199.565217,43.5727276" id="Fill-170" fill="#F15A24"></path>
            <path d="M238.141599,181.956522 C238.141599,181.956522 219.521739,211.559712 219.521739,227.873065 C219.521739,244.18773 219.521739,251.368909 219.521739,255.312855 C219.521739,259.255489 244.571918,280.229987 281.177148,276.7279 C317.782378,273.225813 334.120512,291.655366 355.912826,282.853603 C377.705139,274.050528 382.695652,248.619424 382.695652,239.249931 C382.695652,229.880439 373.971406,206.064674 373.971406,206.064674 C373.971406,206.064674 335.987379,209.804079 321.040243,200.434587 C306.093108,191.065095 301.724884,209.016077 283.044015,206.064674 C264.363146,203.111959 238.141599,181.956522 238.141599,181.956522" id="Fill-171" fill="#124A6B"></path>
            <path d="M292.695652,173.152858 C292.695652,176.717859 289.896831,179.608696 286.434783,179.608696 C282.972734,179.608696 280.173913,176.717859 280.173913,173.152858 C280.173913,169.586489 282.972734,166.695652 286.434783,166.695652 C289.896831,166.695652 292.695652,169.586489 292.695652,173.152858" id="Fill-172" fill="#723D6D"></path>
            <path d="M352.565217,175.304348 C352.565217,178.762278 349.941323,181.565217 346.695652,181.565217 C343.462417,181.565217 340.826087,178.762278 340.826087,175.304348 C340.826087,171.846417 343.462417,169.043478 346.695652,169.043478 C349.941323,169.043478 352.565217,171.846417 352.565217,175.304348" id="Fill-173" fill="#723D6D"></path>
            <path d="M300.521739,196.826087 C301.726741,194.968066 303.368851,193.43729 305.223609,192.197398 C307.078367,190.969626 309.322978,190.147879 311.673913,190.174543 C314.09573,190.311501 316.115881,191.258086 318.041521,192.312539 C319.93172,193.408202 321.833732,194.805656 322.826087,196.826087 C321.254859,195.325611 319.36466,194.393571 317.450834,193.602124 C315.501566,192.889459 313.49323,192.07256 311.638472,192.03014 C309.701018,191.964691 307.763564,192.596151 305.896992,193.44335 C304.030421,194.343878 302.258359,195.509838 300.521739,196.826087" id="Fill-174" fill="#723D6D"></path>
        </g>
    </g>
</svg>